<mxfile host="65bd71144e">
    <diagram id="df6FRXqZ2E3IDwQO_v3R" name="Page-1">
        <mxGraphModel dx="184" dy="879" grid="1" gridSize="10" guides="1" tooltips="1" connect="1" arrows="1" fold="1" page="0" pageScale="1" pageWidth="1100" pageHeight="850" math="0" shadow="0">
            <root>
                <mxCell id="0"/>
                <mxCell id="1" parent="0"/>
                <mxCell id="22" value="" style="ellipse;whiteSpace=wrap;html=1;aspect=fixed;fillColor=none;" parent="1" vertex="1">
                    <mxGeometry x="554.6899999999999" y="44.690000000000005" width="460.62" height="460.62" as="geometry"/>
                </mxCell>
                <mxCell id="19" value="" style="ellipse;whiteSpace=wrap;html=1;aspect=fixed;fillColor=none;" parent="1" vertex="1">
                    <mxGeometry x="603.75" y="93.75" width="362.5" height="362.5" as="geometry"/>
                </mxCell>
                <mxCell id="5" value="" style="ellipse;whiteSpace=wrap;html=1;aspect=fixed;fillColor=none;" parent="1" vertex="1">
                    <mxGeometry x="90" y="130" width="270" height="270" as="geometry"/>
                </mxCell>
                <mxCell id="3" value="" style="ellipse;whiteSpace=wrap;html=1;aspect=fixed;fillColor=none;" parent="1" vertex="1">
                    <mxGeometry x="138.5" y="178.5" width="173" height="173" as="geometry"/>
                </mxCell>
                <mxCell id="2" value="Domain" style="ellipse;whiteSpace=wrap;html=1;aspect=fixed;fillColor=none;" parent="1" vertex="1">
                    <mxGeometry x="190" y="230" width="70" height="70" as="geometry"/>
                </mxCell>
                <mxCell id="4" value="Infrastructure" style="text;html=1;strokeColor=none;fillColor=none;align=center;verticalAlign=middle;whiteSpace=wrap;rounded=0;" parent="1" vertex="1">
                    <mxGeometry x="180" y="195" width="90" height="30" as="geometry"/>
                </mxCell>
                <mxCell id="6" value="External" style="text;html=1;strokeColor=none;fillColor=none;align=center;verticalAlign=middle;whiteSpace=wrap;rounded=0;" parent="1" vertex="1">
                    <mxGeometry x="195" y="140" width="60" height="30" as="geometry"/>
                </mxCell>
                <mxCell id="7" value="Stopwatch Architecture Layers" style="text;html=1;strokeColor=none;fillColor=none;align=center;verticalAlign=middle;whiteSpace=wrap;rounded=0;fontSize=14;" parent="1" vertex="1">
                    <mxGeometry x="120" y="90" width="210" height="20" as="geometry"/>
                </mxCell>
                <mxCell id="8" value="" style="ellipse;whiteSpace=wrap;html=1;aspect=fixed;fillColor=none;" parent="1" vertex="1">
                    <mxGeometry x="650" y="140" width="270" height="270" as="geometry"/>
                </mxCell>
                <mxCell id="12" value="DOMAIN" style="text;html=1;strokeColor=none;fillColor=none;align=center;verticalAlign=middle;whiteSpace=wrap;rounded=0;fontStyle=1" parent="1" vertex="1">
                    <mxGeometry x="755" y="250" width="60" height="30" as="geometry"/>
                </mxCell>
                <mxCell id="13" value="Stopwatch Architecture Layers - Domain" style="text;html=1;strokeColor=none;fillColor=none;align=center;verticalAlign=middle;whiteSpace=wrap;rounded=0;fontSize=14;" parent="1" vertex="1">
                    <mxGeometry x="641.19" y="-20" width="280" height="40" as="geometry"/>
                </mxCell>
                <mxCell id="14" value="Domain Entities" style="text;html=1;strokeColor=none;fillColor=none;align=center;verticalAlign=middle;whiteSpace=wrap;rounded=0;" parent="1" vertex="1">
                    <mxGeometry x="680" y="210" width="90" height="30" as="geometry"/>
                </mxCell>
                <mxCell id="15" value="Services" style="text;html=1;strokeColor=none;fillColor=none;align=center;verticalAlign=middle;whiteSpace=wrap;rounded=0;" parent="1" vertex="1">
                    <mxGeometry x="650" y="291.5" width="120" height="25" as="geometry"/>
                </mxCell>
                <mxCell id="16" value="Data Repositories" style="text;html=1;strokeColor=none;fillColor=none;align=center;verticalAlign=middle;whiteSpace=wrap;rounded=0;" parent="1" vertex="1">
                    <mxGeometry x="725" y="346.5" width="120" height="25" as="geometry"/>
                </mxCell>
                <mxCell id="17" value="State Stores" style="text;html=1;strokeColor=none;fillColor=none;align=center;verticalAlign=middle;whiteSpace=wrap;rounded=0;" parent="1" vertex="1">
                    <mxGeometry x="815" y="280" width="110" height="20" as="geometry"/>
                </mxCell>
                <mxCell id="18" value="Use Cases" style="text;html=1;strokeColor=none;fillColor=none;align=center;verticalAlign=middle;whiteSpace=wrap;rounded=0;" parent="1" vertex="1">
                    <mxGeometry x="780" y="190" width="120" height="25" as="geometry"/>
                </mxCell>
                <mxCell id="20" value="INFRASTRUCTURE" style="text;html=1;strokeColor=none;fillColor=none;align=center;verticalAlign=middle;whiteSpace=wrap;rounded=0;fontStyle=1" parent="1" vertex="1">
                    <mxGeometry x="720" y="107" width="130" height="30" as="geometry"/>
                </mxCell>
                <mxCell id="21" value="EXTERNAL" style="text;html=1;strokeColor=none;fillColor=none;align=center;verticalAlign=middle;whiteSpace=wrap;rounded=0;fontStyle=1" parent="1" vertex="1">
                    <mxGeometry x="716.19" y="60" width="130" height="30" as="geometry"/>
                </mxCell>
                <mxCell id="23" value="Utils" style="text;html=1;strokeColor=none;fillColor=none;align=center;verticalAlign=middle;whiteSpace=wrap;rounded=0;" parent="1" vertex="1">
                    <mxGeometry x="755" y="316.5" width="110" height="20" as="geometry"/>
                </mxCell>
                <mxCell id="24" value="" style="ellipse;whiteSpace=wrap;html=1;aspect=fixed;fillColor=none;" vertex="1" parent="1">
                    <mxGeometry x="1153.81" y="44.690000000000005" width="460.62" height="460.62" as="geometry"/>
                </mxCell>
                <mxCell id="25" value="" style="ellipse;whiteSpace=wrap;html=1;aspect=fixed;fillColor=none;" vertex="1" parent="1">
                    <mxGeometry x="1202.87" y="93.75" width="362.5" height="362.5" as="geometry"/>
                </mxCell>
                <mxCell id="28" value="Stopwatch Architecture Layers - Infrastructure" style="text;html=1;strokeColor=none;fillColor=none;align=center;verticalAlign=middle;whiteSpace=wrap;rounded=0;fontSize=14;" vertex="1" parent="1">
                    <mxGeometry x="1224.27" y="-20" width="319.69" height="40" as="geometry"/>
                </mxCell>
                <mxCell id="33" value="Presentation Entities" style="text;html=1;strokeColor=none;fillColor=none;align=center;verticalAlign=middle;whiteSpace=wrap;rounded=0;" vertex="1" parent="1">
                    <mxGeometry x="1240.31" y="170" width="120" height="25" as="geometry"/>
                </mxCell>
                <mxCell id="34" value="INFRASTRUCTURE" style="text;html=1;strokeColor=none;fillColor=none;align=center;verticalAlign=middle;whiteSpace=wrap;rounded=0;fontStyle=1" vertex="1" parent="1">
                    <mxGeometry x="1320.31" y="120" width="130" height="30" as="geometry"/>
                </mxCell>
                <mxCell id="35" value="EXTERNAL" style="text;html=1;strokeColor=none;fillColor=none;align=center;verticalAlign=middle;whiteSpace=wrap;rounded=0;fontStyle=1" vertex="1" parent="1">
                    <mxGeometry x="1315.31" y="60" width="130" height="30" as="geometry"/>
                </mxCell>
                <mxCell id="38" value="DOMAIN" style="ellipse;whiteSpace=wrap;html=1;aspect=fixed;fillColor=none;fontStyle=1" vertex="1" parent="1">
                    <mxGeometry x="1349.12" y="240" width="70" height="70" as="geometry"/>
                </mxCell>
                <mxCell id="39" value="Views" style="text;html=1;strokeColor=none;fillColor=none;align=center;verticalAlign=middle;whiteSpace=wrap;rounded=0;" vertex="1" parent="1">
                    <mxGeometry x="1370.8799999999999" y="200" width="40" height="25" as="geometry"/>
                </mxCell>
                <mxCell id="40" value="View Components" style="text;html=1;strokeColor=none;fillColor=none;align=center;verticalAlign=middle;whiteSpace=wrap;rounded=0;" vertex="1" parent="1">
                    <mxGeometry x="1430" y="170" width="104.69" height="35" as="geometry"/>
                </mxCell>
                <mxCell id="41" value="ViewModels" style="text;html=1;strokeColor=none;fillColor=none;align=center;verticalAlign=middle;whiteSpace=wrap;rounded=0;" vertex="1" parent="1">
                    <mxGeometry x="1260" y="245" width="70" height="30" as="geometry"/>
                </mxCell>
                <mxCell id="42" value="UI Mappers" style="text;html=1;strokeColor=none;fillColor=none;align=center;verticalAlign=middle;whiteSpace=wrap;rounded=0;" vertex="1" parent="1">
                    <mxGeometry x="1450.31" y="230" width="70" height="30" as="geometry"/>
                </mxCell>
                <mxCell id="43" value="Navigators" style="text;html=1;strokeColor=none;fillColor=none;align=center;verticalAlign=middle;whiteSpace=wrap;rounded=0;" vertex="1" parent="1">
                    <mxGeometry x="1480" y="275" width="70" height="30" as="geometry"/>
                </mxCell>
                <mxCell id="44" value="Data Entities" style="text;html=1;strokeColor=none;fillColor=none;align=center;verticalAlign=middle;whiteSpace=wrap;rounded=0;" vertex="1" parent="1">
                    <mxGeometry x="1204.5599999999997" y="294.5" width="100.88" height="23.5" as="geometry"/>
                </mxCell>
                <mxCell id="45" value="Data Sources" style="text;html=1;strokeColor=none;fillColor=none;align=center;verticalAlign=middle;whiteSpace=wrap;rounded=0;" vertex="1" parent="1">
                    <mxGeometry x="1279.43" y="328" width="100.88" height="23.5" as="geometry"/>
                </mxCell>
                <mxCell id="46" value="External Resource Facades" style="text;html=1;strokeColor=none;fillColor=none;align=center;verticalAlign=middle;whiteSpace=wrap;rounded=0;" vertex="1" parent="1">
                    <mxGeometry x="1394.69" y="323" width="140" height="33.5" as="geometry"/>
                </mxCell>
                <mxCell id="47" value="Dependency Container" style="text;html=1;strokeColor=none;fillColor=none;align=center;verticalAlign=middle;whiteSpace=wrap;rounded=0;" vertex="1" parent="1">
                    <mxGeometry x="1259.9999999999998" y="374" width="150.88" height="28.5" as="geometry"/>
                </mxCell>
                <mxCell id="48" value="Factories" style="text;html=1;strokeColor=none;fillColor=none;align=center;verticalAlign=middle;whiteSpace=wrap;rounded=0;" vertex="1" parent="1">
                    <mxGeometry x="1410.8799999999999" y="402.5" width="81.19" height="13.5" as="geometry"/>
                </mxCell>
            </root>
        </mxGraphModel>
    </diagram>
</mxfile>